<svg width="164" height="46" viewBox="0 0 164 46" fill="none" xmlns="http://www.w3.org/2000/svg">
<path d="M6.498 17.18C5.55 17.18 4.686 16.988 3.906 16.604C3.126 16.208 2.508 15.632 2.052 14.876C1.596 14.108 1.368 13.172 1.368 12.068C1.368 11.144 1.5 10.262 1.764 9.422C2.028 8.57 2.424 7.808 2.952 7.136C3.48 6.464 4.128 5.93 4.896 5.534C5.676 5.138 6.57 4.94 7.578 4.94C8.37 4.94 9.072 5.072 9.684 5.336C10.308 5.588 10.83 5.972 11.25 6.488C11.67 7.004 11.976 7.652 12.168 8.432L10.206 8.99C10.05 8.15 9.744 7.544 9.288 7.172C8.832 6.8 8.22 6.614 7.452 6.614C6.78 6.614 6.186 6.776 5.67 7.1C5.166 7.412 4.74 7.826 4.392 8.342C4.056 8.846 3.798 9.416 3.618 10.052C3.45 10.676 3.366 11.306 3.366 11.942C3.366 12.686 3.504 13.322 3.78 13.85C4.068 14.378 4.458 14.786 4.95 15.074C5.442 15.362 6 15.506 6.624 15.506C7.356 15.506 7.932 15.344 8.352 15.02C8.784 14.696 9.144 14.258 9.432 13.706L11.232 14.498C10.74 15.314 10.116 15.968 9.36 16.46C8.604 16.94 7.65 17.18 6.498 17.18ZM17.1873 17.162C16.2993 17.162 15.5433 16.982 14.9193 16.622C14.3073 16.262 13.8333 15.776 13.4973 15.164C13.1613 14.54 12.9933 13.856 12.9933 13.112C12.9933 12.092 13.1913 11.186 13.5873 10.394C13.9953 9.602 14.5533 8.978 15.2613 8.522C15.9813 8.066 16.8273 7.838 17.7993 7.838C18.6873 7.838 19.4373 8.018 20.0493 8.378C20.6733 8.738 21.1473 9.224 21.4713 9.836C21.7953 10.448 21.9573 11.132 21.9573 11.888C21.9573 12.884 21.7593 13.784 21.3633 14.588C20.9793 15.38 20.4273 16.01 19.7073 16.478C18.9873 16.934 18.1473 17.162 17.1873 17.162ZM17.2233 15.65C17.6193 15.65 17.9853 15.554 18.3213 15.362C18.6693 15.17 18.9693 14.9 19.2213 14.552C19.4853 14.204 19.6833 13.802 19.8153 13.346C19.9593 12.878 20.0313 12.38 20.0313 11.852C20.0313 11.372 19.9473 10.946 19.7793 10.574C19.6233 10.202 19.3713 9.908 19.0233 9.692C18.6873 9.464 18.2613 9.35 17.7453 9.35C17.3493 9.35 16.9773 9.446 16.6293 9.638C16.2813 9.83 15.9813 10.1 15.7293 10.448C15.4773 10.784 15.2793 11.186 15.1353 11.654C14.9913 12.11 14.9193 12.608 14.9193 13.148C14.9193 13.604 15.0033 14.024 15.1713 14.408C15.3393 14.792 15.5913 15.098 15.9273 15.326C16.2753 15.542 16.7073 15.65 17.2233 15.65ZM23.23 17L25.318 8H27.01L26.632 10.268L26.452 10.142C26.704 9.374 27.148 8.798 27.784 8.414C28.42 8.018 29.122 7.82 29.89 7.82C30.562 7.82 31.132 7.97 31.6 8.27C32.068 8.558 32.398 8.978 32.59 9.53C32.782 10.07 32.788 10.73 32.608 11.51L31.33 17H29.404L30.664 11.6C30.82 10.916 30.754 10.382 30.466 9.998C30.178 9.602 29.722 9.404 29.098 9.404C28.618 9.404 28.186 9.512 27.802 9.728C27.43 9.944 27.118 10.262 26.866 10.682C26.614 11.09 26.41 11.606 26.254 12.23L25.156 17H23.23ZM38.6134 17.162C37.7614 17.162 37.0294 16.988 36.4174 16.64C35.8054 16.28 35.3314 15.794 34.9954 15.182C34.6594 14.57 34.4914 13.88 34.4914 13.112C34.4914 12.152 34.6834 11.276 35.0674 10.484C35.4514 9.68 36.0094 9.038 36.7414 8.558C37.4734 8.078 38.3554 7.838 39.3874 7.838C40.1554 7.838 40.8154 7.994 41.3674 8.306C41.9194 8.618 42.3394 9.056 42.6274 9.62C42.9154 10.172 43.0594 10.82 43.0594 11.564C43.0594 11.804 43.0414 12.05 43.0054 12.302C42.9814 12.554 42.9274 12.806 42.8434 13.058H35.5894V11.582H41.7994L41.0974 12.086C41.1454 11.942 41.1754 11.804 41.1874 11.672C41.1994 11.528 41.2054 11.396 41.2054 11.276C41.2054 10.88 41.1274 10.538 40.9714 10.25C40.8274 9.962 40.6114 9.74 40.3234 9.584C40.0354 9.428 39.6934 9.35 39.2974 9.35C38.7574 9.35 38.2954 9.464 37.9114 9.692C37.5394 9.908 37.2394 10.208 37.0114 10.592C36.7834 10.964 36.6214 11.378 36.5254 11.834C36.4294 12.29 36.3814 12.74 36.3814 13.184C36.3814 13.688 36.4774 14.126 36.6694 14.498C36.8734 14.858 37.1494 15.14 37.4974 15.344C37.8574 15.548 38.2774 15.65 38.7574 15.65C39.3214 15.65 39.7774 15.53 40.1254 15.29C40.4854 15.05 40.7734 14.744 40.9894 14.372L42.5374 15.2C42.2974 15.608 41.9794 15.962 41.5834 16.262C41.1994 16.55 40.7554 16.772 40.2514 16.928C39.7594 17.084 39.2134 17.162 38.6134 17.162ZM42.9097 17L47.6258 11.978L48.1658 11.852L51.4778 8H53.7818L49.2818 12.86L48.6878 13.076L45.2858 17H42.9097ZM49.7678 17L47.9498 12.95L47.4998 12.734L45.1418 8H47.2838L48.9938 11.924L49.3718 11.996L51.8918 17H49.7678ZM57.1937 17.144C56.5337 17.144 55.9457 16.988 55.4297 16.676C54.9137 16.352 54.5117 15.902 54.2237 15.326C53.9357 14.75 53.7917 14.072 53.7917 13.292C53.7917 12.56 53.8997 11.864 54.1157 11.204C54.3437 10.544 54.6557 9.962 55.0517 9.458C55.4597 8.942 55.9397 8.54 56.4917 8.252C57.0557 7.964 57.6677 7.82 58.3277 7.82C58.8197 7.82 59.2637 7.904 59.6597 8.072C60.0677 8.24 60.4097 8.486 60.6857 8.81C60.9617 9.134 61.1477 9.53 61.2437 9.998L61.7117 8H63.6377L61.5497 17H59.8397L60.1457 15.326C59.8457 15.878 59.4317 16.322 58.9037 16.658C58.3877 16.982 57.8177 17.144 57.1937 17.144ZM57.8597 15.614C58.2437 15.614 58.6037 15.512 58.9397 15.308C59.2877 15.104 59.5877 14.822 59.8397 14.462C60.1037 14.102 60.3077 13.688 60.4517 13.22C60.6077 12.74 60.6857 12.242 60.6857 11.726C60.6857 11.246 60.5957 10.832 60.4157 10.484C60.2477 10.124 60.0077 9.848 59.6957 9.656C59.3957 9.464 59.0357 9.368 58.6157 9.368C58.1717 9.368 57.7697 9.47 57.4097 9.674C57.0617 9.878 56.7557 10.16 56.4917 10.52C56.2397 10.868 56.0417 11.276 55.8977 11.744C55.7537 12.2 55.6817 12.68 55.6817 13.184C55.6817 13.7 55.7657 14.138 55.9337 14.498C56.1017 14.858 56.3477 15.134 56.6717 15.326C56.9957 15.518 57.3917 15.614 57.8597 15.614ZM62.8997 4.094C62.7677 4.922 62.4857 5.552 62.0537 5.984C61.6217 6.416 61.1297 6.632 60.5777 6.632C60.2657 6.632 60.0017 6.572 59.7857 6.452C59.5697 6.332 59.3777 6.194 59.2097 6.038C59.0537 5.882 58.9037 5.744 58.7597 5.624C58.6157 5.504 58.4537 5.444 58.2737 5.444C58.0697 5.444 57.8837 5.552 57.7157 5.768C57.5597 5.984 57.4397 6.278 57.3557 6.65H56.0417C56.1857 5.81 56.4677 5.174 56.8877 4.742C57.3197 4.31 57.8117 4.094 58.3637 4.094C58.6637 4.094 58.9217 4.154 59.1377 4.274C59.3537 4.394 59.5397 4.532 59.6957 4.688C59.8637 4.844 60.0197 4.982 60.1637 5.102C60.3197 5.222 60.4877 5.282 60.6677 5.282C60.8717 5.282 61.0517 5.174 61.2077 4.958C61.3757 4.742 61.5077 4.454 61.6037 4.094H62.8997ZM69.1131 17.162C68.2251 17.162 67.4691 16.982 66.8451 16.622C66.2331 16.262 65.7591 15.776 65.4231 15.164C65.0871 14.54 64.9191 13.856 64.9191 13.112C64.9191 12.092 65.1171 11.186 65.5131 10.394C65.9211 9.602 66.4791 8.978 67.1871 8.522C67.9071 8.066 68.7531 7.838 69.7251 7.838C70.6131 7.838 71.3631 8.018 71.9751 8.378C72.5991 8.738 73.0731 9.224 73.3971 9.836C73.7211 10.448 73.8831 11.132 73.8831 11.888C73.8831 12.884 73.6851 13.784 73.2891 14.588C72.9051 15.38 72.3531 16.01 71.6331 16.478C70.9131 16.934 70.0731 17.162 69.1131 17.162ZM69.1491 15.65C69.5451 15.65 69.9111 15.554 70.2471 15.362C70.5951 15.17 70.8951 14.9 71.1471 14.552C71.4111 14.204 71.6091 13.802 71.7411 13.346C71.8851 12.878 71.9571 12.38 71.9571 11.852C71.9571 11.372 71.8731 10.946 71.7051 10.574C71.5491 10.202 71.2971 9.908 70.9491 9.692C70.6131 9.464 70.1871 9.35 69.6711 9.35C69.2751 9.35 68.9031 9.446 68.5551 9.638C68.2071 9.83 67.9071 10.1 67.6551 10.448C67.4031 10.784 67.2051 11.186 67.0611 11.654C66.9171 12.11 66.8451 12.608 66.8451 13.148C66.8451 13.604 66.9291 14.024 67.0971 14.408C67.2651 14.792 67.5171 15.098 67.8531 15.326C68.2011 15.542 68.6331 15.65 69.1491 15.65Z" fill="white" fill-opacity="0.8"/>
<path d="M0.048 40L3.72 24.16H9.816L10.44 31.072L10.584 35.056H10.608L12.552 31.072L16.176 24.16H23.088L19.416 40H15.12L16.584 33.664L17.712 28.84H17.688L11.616 40H7.896L6.744 28.96H6.696L5.832 33.664L4.368 40H0.048ZM29.0113 40.216C27.8113 40.216 26.7393 40 25.7953 39.568C24.8673 39.12 24.1393 38.488 23.6113 37.672C23.0993 36.84 22.8433 35.872 22.8433 34.768C22.8433 33.376 23.1233 32.16 23.6833 31.12C24.2593 30.064 25.0673 29.24 26.1073 28.648C27.1473 28.056 28.3713 27.76 29.7793 27.76C31.0273 27.76 32.0833 27.984 32.9473 28.432C33.8113 28.88 34.4673 29.504 34.9153 30.304C35.3793 31.104 35.6113 32.04 35.6113 33.112C35.6113 33.432 35.5953 33.76 35.5633 34.096C35.5313 34.416 35.4673 34.736 35.3713 35.056H26.0833L26.0593 32.944H32.1073L30.8593 33.496C30.9393 33.288 30.9793 33.112 30.9793 32.968C30.9953 32.808 31.0033 32.656 31.0033 32.512C31.0033 32.16 30.9473 31.88 30.8353 31.672C30.7233 31.448 30.5633 31.288 30.3553 31.192C30.1633 31.08 29.9393 31.024 29.6833 31.024C29.2033 31.024 28.8033 31.152 28.4833 31.408C28.1633 31.664 27.9153 32 27.7393 32.416C27.5633 32.816 27.4433 33.256 27.3793 33.736C27.3153 34.2 27.2833 34.64 27.2833 35.056C27.2833 35.488 27.3633 35.848 27.5233 36.136C27.6833 36.424 27.9073 36.64 28.1953 36.784C28.4833 36.912 28.8113 36.976 29.1793 36.976C29.6593 36.976 30.0433 36.856 30.3313 36.616C30.6193 36.376 30.8353 36.088 30.9793 35.752L35.0113 37.144C34.7553 37.8 34.3313 38.36 33.7393 38.824C33.1473 39.272 32.4433 39.616 31.6273 39.856C30.8273 40.096 29.9553 40.216 29.0113 40.216ZM40.7224 40.216C39.1704 40.216 38.0744 39.8 37.4344 38.968C36.7944 38.136 36.6424 37.008 36.9784 35.584L39.8824 23.056H44.7304L41.8504 35.488C41.7384 35.984 41.7624 36.36 41.9224 36.616C42.0824 36.856 42.4024 36.976 42.8824 36.976C43.0584 36.976 43.2104 36.968 43.3384 36.952C43.4664 36.936 43.5704 36.92 43.6504 36.904L42.8344 39.928C42.5784 40.04 42.2824 40.112 41.9464 40.144C41.6104 40.192 41.2024 40.216 40.7224 40.216ZM44.0803 40L47.9923 23.056H52.8403L51.0403 30.88L50.6323 31.552C50.8243 30.88 51.1203 30.264 51.5203 29.704C51.9203 29.128 52.4323 28.664 53.0563 28.312C53.6963 27.944 54.4483 27.76 55.3123 27.76C56.0643 27.76 56.7123 27.944 57.2563 28.312C57.8003 28.664 58.1763 29.168 58.3843 29.824C58.6083 30.464 58.6243 31.224 58.4323 32.104L56.5843 40H51.7363L53.3923 32.992C53.5043 32.496 53.4643 32.104 53.2723 31.816C53.0803 31.528 52.7603 31.384 52.3123 31.384C51.9923 31.384 51.7043 31.464 51.4483 31.624C51.2083 31.784 51.0003 32.016 50.8243 32.32C50.6643 32.624 50.5283 33.008 50.4163 33.472L48.9283 40H44.0803ZM65.7825 40.24C64.5505 40.24 63.4785 40.008 62.5665 39.544C61.6545 39.064 60.9425 38.416 60.4305 37.6C59.9345 36.768 59.6865 35.824 59.6865 34.768C59.6865 33.504 59.9585 32.344 60.5025 31.288C61.0465 30.216 61.8385 29.36 62.8785 28.72C63.9345 28.08 65.2305 27.76 66.7665 27.76C68.0145 27.76 69.0945 28 70.0065 28.48C70.9185 28.944 71.6225 29.584 72.1185 30.4C72.6305 31.216 72.8865 32.152 72.8865 33.208C72.8865 34.472 72.6145 35.64 72.0705 36.712C71.5265 37.784 70.7265 38.64 69.6705 39.28C68.6305 39.92 67.3345 40.24 65.7825 40.24ZM65.8545 36.928C66.2065 36.928 66.5185 36.792 66.7905 36.52C67.0785 36.248 67.3185 35.896 67.5105 35.464C67.7185 35.032 67.8705 34.576 67.9665 34.096C68.0785 33.616 68.1345 33.168 68.1345 32.752C68.1345 32.368 68.0785 32.056 67.9665 31.816C67.8545 31.576 67.6865 31.392 67.4625 31.264C67.2545 31.136 66.9985 31.072 66.6945 31.072C66.3425 31.072 66.0225 31.208 65.7345 31.48C65.4625 31.752 65.2225 32.104 65.0145 32.536C64.8225 32.968 64.6705 33.424 64.5585 33.904C64.4465 34.384 64.3905 34.832 64.3905 35.248C64.3905 35.616 64.4465 35.928 64.5585 36.184C64.6865 36.424 64.8545 36.608 65.0625 36.736C65.2865 36.864 65.5505 36.928 65.8545 36.928ZM73.26 40L76.044 28H80.364L79.476 32.92L79.332 32.44C79.588 31.512 79.916 30.696 80.316 29.992C80.732 29.288 81.244 28.744 81.852 28.36C82.476 27.96 83.212 27.76 84.06 27.76C84.332 27.76 84.556 27.784 84.732 27.832C84.924 27.864 85.076 27.912 85.188 27.976L84.06 31.984C83.9 31.904 83.708 31.84 83.484 31.792C83.26 31.744 82.972 31.72 82.62 31.72C82.156 31.72 81.7 31.824 81.252 32.032C80.82 32.24 80.428 32.568 80.076 33.016C79.74 33.448 79.484 34.04 79.308 34.792L78.108 40H73.26ZM98.6634 24.16L94.9914 40H90.0714L93.7434 24.16H98.6634ZM102.293 40.24C101.557 40.24 100.885 40.064 100.277 39.712C99.6693 39.36 99.1893 38.84 98.8373 38.152C98.4853 37.464 98.3093 36.608 98.3093 35.584C98.3093 34.624 98.4453 33.68 98.7173 32.752C98.9893 31.824 99.3733 30.984 99.8693 30.232C100.381 29.48 100.997 28.88 101.717 28.432C102.437 27.984 103.261 27.76 104.189 27.76C104.653 27.76 105.109 27.848 105.557 28.024C106.021 28.2 106.421 28.48 106.757 28.864C107.109 29.248 107.341 29.776 107.453 30.448L109.157 23.056H114.005L110.093 40H105.677L106.085 37.72C105.685 38.504 105.157 39.12 104.501 39.568C103.845 40.016 103.109 40.24 102.293 40.24ZM104.549 36.76C104.885 36.76 105.189 36.64 105.461 36.4C105.749 36.16 105.989 35.848 106.181 35.464C106.373 35.064 106.517 34.64 106.613 34.192C106.725 33.744 106.781 33.32 106.781 32.92C106.781 32.568 106.725 32.272 106.613 32.032C106.501 31.776 106.341 31.584 106.133 31.456C105.941 31.312 105.701 31.24 105.413 31.24C105.029 31.24 104.693 31.368 104.405 31.624C104.117 31.88 103.877 32.2 103.685 32.584C103.493 32.968 103.349 33.376 103.253 33.808C103.157 34.24 103.109 34.624 103.109 34.96C103.109 35.328 103.157 35.648 103.253 35.92C103.365 36.192 103.525 36.4 103.733 36.544C103.941 36.688 104.213 36.76 104.549 36.76ZM117.129 40.24C116.393 40.24 115.721 40.064 115.113 39.712C114.505 39.36 114.025 38.84 113.673 38.152C113.321 37.464 113.145 36.608 113.145 35.584C113.145 34.624 113.281 33.68 113.553 32.752C113.825 31.824 114.209 30.984 114.705 30.232C115.217 29.48 115.833 28.88 116.553 28.432C117.273 27.984 118.097 27.76 119.025 27.76C119.489 27.76 119.945 27.848 120.393 28.024C120.857 28.2 121.257 28.48 121.593 28.864C121.945 29.248 122.177 29.776 122.289 30.448L122.865 28H127.713L124.929 40H120.513L120.921 37.72C120.521 38.504 119.993 39.12 119.337 39.568C118.681 40.016 117.945 40.24 117.129 40.24ZM119.385 36.76C119.721 36.76 120.025 36.64 120.297 36.4C120.569 36.16 120.801 35.848 120.993 35.464C121.201 35.064 121.353 34.64 121.449 34.192C121.561 33.744 121.617 33.32 121.617 32.92C121.617 32.568 121.561 32.272 121.449 32.032C121.337 31.776 121.177 31.584 120.969 31.456C120.777 31.312 120.537 31.24 120.249 31.24C119.865 31.24 119.529 31.368 119.241 31.624C118.953 31.88 118.713 32.2 118.521 32.584C118.329 32.968 118.185 33.376 118.089 33.808C117.993 34.24 117.945 34.624 117.945 34.96C117.945 35.328 117.993 35.648 118.089 35.92C118.201 36.192 118.361 36.4 118.569 36.544C118.777 36.688 119.049 36.76 119.385 36.76ZM131.965 40.24C131.229 40.24 130.557 40.064 129.949 39.712C129.341 39.36 128.861 38.84 128.509 38.152C128.157 37.464 127.981 36.608 127.981 35.584C127.981 34.624 128.117 33.68 128.389 32.752C128.661 31.824 129.045 30.984 129.541 30.232C130.053 29.48 130.669 28.88 131.389 28.432C132.109 27.984 132.933 27.76 133.861 27.76C134.325 27.76 134.781 27.848 135.229 28.024C135.693 28.2 136.093 28.48 136.429 28.864C136.781 29.248 137.013 29.776 137.125 30.448L138.829 23.056H143.677L139.765 40H135.349L135.757 37.72C135.357 38.504 134.829 39.12 134.173 39.568C133.517 40.016 132.781 40.24 131.965 40.24ZM134.221 36.76C134.557 36.76 134.861 36.64 135.133 36.4C135.421 36.16 135.661 35.848 135.853 35.464C136.045 35.064 136.189 34.64 136.285 34.192C136.397 33.744 136.453 33.32 136.453 32.92C136.453 32.568 136.397 32.272 136.285 32.032C136.173 31.776 136.013 31.584 135.805 31.456C135.613 31.312 135.373 31.24 135.085 31.24C134.701 31.24 134.365 31.368 134.077 31.624C133.789 31.88 133.549 32.2 133.357 32.584C133.165 32.968 133.021 33.376 132.925 33.808C132.829 34.24 132.781 34.624 132.781 34.96C132.781 35.328 132.829 35.648 132.925 35.92C133.037 36.192 133.197 36.4 133.405 36.544C133.613 36.688 133.885 36.76 134.221 36.76ZM149.105 40.216C147.905 40.216 146.833 40 145.889 39.568C144.961 39.12 144.233 38.488 143.705 37.672C143.193 36.84 142.937 35.872 142.937 34.768C142.937 33.376 143.217 32.16 143.777 31.12C144.353 30.064 145.161 29.24 146.201 28.648C147.241 28.056 148.465 27.76 149.873 27.76C151.121 27.76 152.177 27.984 153.041 28.432C153.905 28.88 154.561 29.504 155.009 30.304C155.473 31.104 155.705 32.04 155.705 33.112C155.705 33.432 155.689 33.76 155.657 34.096C155.625 34.416 155.561 34.736 155.465 35.056H146.177L146.153 32.944H152.201L150.953 33.496C151.033 33.288 151.073 33.112 151.073 32.968C151.089 32.808 151.097 32.656 151.097 32.512C151.097 32.16 151.041 31.88 150.929 31.672C150.817 31.448 150.657 31.288 150.449 31.192C150.257 31.08 150.033 31.024 149.777 31.024C149.297 31.024 148.897 31.152 148.577 31.408C148.257 31.664 148.009 32 147.833 32.416C147.657 32.816 147.537 33.256 147.473 33.736C147.409 34.2 147.377 34.64 147.377 35.056C147.377 35.488 147.457 35.848 147.617 36.136C147.777 36.424 148.001 36.64 148.289 36.784C148.577 36.912 148.905 36.976 149.273 36.976C149.753 36.976 150.137 36.856 150.425 36.616C150.713 36.376 150.929 36.088 151.073 35.752L155.105 37.144C154.849 37.8 154.425 38.36 153.833 38.824C153.241 39.272 152.537 39.616 151.721 39.856C150.921 40.096 150.049 40.216 149.105 40.216Z" fill="white" fill-opacity="0.9"/>
</svg>
